  0
SECTION
  2
HEADER
  9
$ACADVER
  1
AC1014
  9
$HANDSEED
  5
FFFF
  9
$MEASUREMENT
 70
     1
  0
ENDSEC
  0
SECTION
  2
TABLES
  0
TABLE
  2
VPORT
  5
8
330
0
100
AcDbSymbolTable
 70
     4
  0
VPORT
  5
2E
330
8
100
AcDbSymbolTableRecord
100
AcDbViewportTableRecord
  2
*ACTIVE
 70
     0
 10
0.0
 20
0.0
 11
1.0
 21
1.0
 12
210.0
 22
148.5
 13
0.0
 23
0.0
 14
10.0
 24
10.0
 15
10.0
 25
10.0
 16
0.0
 26
0.0
 36
1.0
 17
0.0
 27
0.0
 37
0.0
 40
341.0
 41
1.24
 42
50.0
 43
0.0
 44
0.0
 50
0.0
 51
0.0
 71
     0
 72
   100
 73
     1
 74
     3
 75
     0
 76
     0
 77
     0
 78
     0
  0
ENDTAB
  0
TABLE
  2
LTYPE
  5
5
330
0
100
AcDbSymbolTable
 70
     1
  0
LTYPE
  5
14
330
5
100
AcDbSymbolTableRecord
100
AcDbLinetypeTableRecord
  2
BYBLOCK
 70
     0
  3

 72
    65
 73
     0
 40
0.0
  0
LTYPE
  5
15
330
5
100
AcDbSymbolTableRecord
100
AcDbLinetypeTableRecord
  2
BYLAYER
 70
     0
  3

 72
    65
 73
     0
 40
0.0
  0
LTYPE
  5
16
330
5
100
AcDbSymbolTableRecord
100
AcDbLinetypeTableRecord
  2
CONTINUOUS
 70
     0
  3
Solid line
 72
    65
 73
     0
 40
0.0
  0
ENDTAB
  0
TABLE
  2
LAYER
  5
2
100
AcDbSymbolTable
 70
2
  0
LAYER
  5
50
100
AcDbSymbolTableRecord
100
AcDbLayerTableRecord
  2
0
 70
0
  6
CONTINUOUS
  0
LAYER
  5
51
100
AcDbSymbolTableRecord
100
AcDbLayerTableRecord
  2
Layer_1
 70
0
  6
CONTINUOUS
  0
ENDTAB
  0
TABLE
  2
STYLE
  5
3
330
0
100
AcDbSymbolTable
 70
     1
  0
STYLE
  5
11
330
3
100
AcDbSymbolTableRecord
100
AcDbTextStyleTableRecord
  2
STANDARD
 70
     0
 40
0.0
 41
1.0
 50
0.0
 71
     0
 42
2.5
  3
txt
  4

  0
ENDTAB
  0
TABLE
  2
VIEW
  5
6
330
0
100
AcDbSymbolTable
 70
     0
  0
ENDTAB
  0
TABLE
  2
UCS
  5
7
330
0
100
AcDbSymbolTable
 70
     0
  0
ENDTAB
  0
TABLE
  2
APPID
  5
9
330
0
100
AcDbSymbolTable
 70
     2
  0
APPID
  5
12
330
9
100
AcDbSymbolTableRecord
100
AcDbRegAppTableRecord
  2
ACAD
 70
     0
  0
ENDTAB
  0
TABLE
  2
DIMSTYLE
  5
A
330
0
100
AcDbSymbolTable
 70
     1
  0
DIMSTYLE
105
27
330
A
100
AcDbSymbolTableRecord
100
AcDbDimStyleTableRecord
  2
ISO-25
 70
     0
  3

  4

  5

  6

  7

 40
1.0
 41
2.5
 42
0.625
 43
3.75
 44
1.25
 45
0.0
 46
0.0
 47
0.0
 48
0.0
140
2.5
141
2.5
142
0.0
143
0.03937007874016
144
1.0
145
0.0
146
1.0
147
0.625
 71
     0
 72
     0
 73
     0
 74
     0
 75
     0
 76
     0
 77
     1
 78
     8
170
     0
171
     3
172
     1
173
     0
174
     0
175
     0
176
     0
177
     0
178
     0
270
     2
271
     2
272
     2
273
     2
274
     3
340
11
275
     0
280
     0
281
     0
282
     0
283
     0
284
     8
285
     0
286
     0
287
     3
288
     0
  0
ENDTAB
  0
TABLE
  2
BLOCK_RECORD
  5
1
330
0
100
AcDbSymbolTable
 70
     1
  0
BLOCK_RECORD
  5
1F
330
1
100
AcDbSymbolTableRecord
100
AcDbBlockTableRecord
  2
*MODEL_SPACE
  0
BLOCK_RECORD
  5
1B
330
1
100
AcDbSymbolTableRecord
100
AcDbBlockTableRecord
  2
*PAPER_SPACE
  0
ENDTAB
  0
ENDSEC
  0
SECTION
  2
BLOCKS
  0
BLOCK
  5
20
330
1F
100
AcDbEntity
  8
0
100
AcDbBlockBegin
  2
*MODEL_SPACE
 70
     0
 10
0.0
 20
0.0
 30
0.0
  3
*MODEL_SPACE
  1

  0
ENDBLK
  5
21
330
1F
100
AcDbEntity
  8
0
100
AcDbBlockEnd
  0
BLOCK
  5
1C
330
1B
100
AcDbEntity
 67
     1
  8
0
100
AcDbBlockBegin
  2
*PAPER_SPACE
  1

  0
ENDBLK
  5
1D
330
1B
100
AcDbEntity
 67
     1
  8
0
100
AcDbBlockEnd
  0
ENDSEC
  0
SECTION
  2
ENTITIES
  0
LINE
  5
100
100
AcDbEntity
  8
Layer_1
 62
7
100
AcDbLine
 10
-4.033051
 20
-22.782726
 30
0.0
 11
-5.793819
 21
-22.431388
 31
0.0
  0
LINE
  5
101
100
AcDbEntity
  8
Layer_1
 62
7
100
AcDbLine
 10
-5.793819
 20
-22.431388
 30
0.0
 11
-7.602406
 21
-21.931375
 31
0.0
  0
LINE
  5
102
100
AcDbEntity
  8
Layer_1
 62
7
100
AcDbLine
 10
-7.602406
 20
-21.931375
 30
0.0
 11
-9.434407
 21
-21.290307
 31
0.0
  0
LINE
  5
103
100
AcDbEntity
  8
Layer_1
 62
7
100
AcDbLine
 10
-9.434407
 20
-21.290307
 30
0.0
 11
-11.265416
 21
-20.515861
 31
0.0
  0
LINE
  5
104
100
AcDbEntity
  8
Layer_1
 62
7
100
AcDbLine
 10
-11.265416
 20
-20.515861
 30
0.0
 11
-12.350015
 21
-20.004136
 31
0.0
  0
LINE
  5
105
100
AcDbEntity
  8
Layer_1
 62
7
100
AcDbLine
 10
-12.350015
 20
-20.004136
 30
0.0
 11
-13.227543
 21
-19.547190
 31
0.0
  0
LINE
  5
106
100
AcDbEntity
  8
Layer_1
 62
7
100
AcDbLine
 10
-13.227543
 20
-19.547190
 30
0.0
 11
-15.319524
 21
-18.266070
 31
0.0
  0
LINE
  5
107
100
AcDbEntity
  8
Layer_1
 62
7
100
AcDbLine
 10
-15.319524
 20
-18.266070
 30
0.0
 11
-16.681610
 21
-17.330757
 31
0.0
  0
LINE
  5
108
100
AcDbEntity
  8
Layer_1
 62
7
100
AcDbLine
 10
-16.681610
 20
-17.330757
 30
0.0
 11
-18.031635
 21
-16.285745
 31
0.0
  0
LINE
  5
109
100
AcDbEntity
  8
Layer_1
 62
7
100
AcDbLine
 10
-18.031635
 20
-16.285745
 30
0.0
 11
-19.339395
 21
-15.161230
 31
0.0
  0
LINE
  5
10a
100
AcDbEntity
  8
Layer_1
 62
7
100
AcDbLine
 10
-19.339395
 20
-15.161230
 30
0.0
 11
-20.574687
 21
-13.987355
 31
0.0
  0
LINE
  5
10b
100
AcDbEntity
  8
Layer_1
 62
7
100
AcDbLine
 10
-20.574687
 20
-13.987355
 30
0.0
 11
-21.707307
 21
-12.794374
 31
0.0
  0
LINE
  5
10c
100
AcDbEntity
  8
Layer_1
 62
7
100
AcDbLine
 10
-21.707307
 20
-12.794374
 30
0.0
 11
-22.707053
 21
-11.612427
 31
0.0
  0
LINE
  5
10d
100
AcDbEntity
  8
Layer_1
 62
7
100
AcDbLine
 10
-22.707053
 20
-11.612427
 30
0.0
 11
-23.543720
 21
-10.471713
 31
0.0
  0
LINE
  5
10e
100
AcDbEntity
  8
Layer_1
 62
7
100
AcDbLine
 10
-23.543720
 20
-10.471713
 30
0.0
 11
-24.187106
 21
-9.402430
 31
0.0
  0
LINE
  5
10f
100
AcDbEntity
  8
Layer_1
 62
7
100
AcDbLine
 10
-24.187106
 20
-9.402430
 30
0.0
 11
-24.642402
 21
-8.492235
 31
0.0
  0
LINE
  5
110
100
AcDbEntity
  8
Layer_1
 62
7
100
AcDbLine
 10
-24.642402
 20
-8.492235
 30
0.0
 11
-25.047564
 21
-7.589829
 31
0.0
  0
LINE
  5
111
100
AcDbEntity
  8
Layer_1
 62
7
100
AcDbLine
 10
-25.047564
 20
-7.589829
 30
0.0
 11
-25.407411
 21
-6.679973
 31
0.0
  0
LINE
  5
112
100
AcDbEntity
  8
Layer_1
 62
7
100
AcDbLine
 10
-25.407411
 20
-6.679973
 30
0.0
 11
-25.726762
 21
-5.747482
 31
0.0
  0
LINE
  5
113
100
AcDbEntity
  8
Layer_1
 62
7
100
AcDbLine
 10
-25.726762
 20
-5.747482
 30
0.0
 11
-26.010437
 21
-4.777174
 31
0.0
  0
LINE
  5
114
100
AcDbEntity
  8
Layer_1
 62
7
100
AcDbLine
 10
-26.010437
 20
-4.777174
 30
0.0
 11
-26.263253
 21
-3.753780
 31
0.0
  0
LINE
  5
115
100
AcDbEntity
  8
Layer_1
 62
7
100
AcDbLine
 10
-26.263253
 20
-3.753780
 30
0.0
 11
-26.695587
 21
-1.487056
 31
0.0
  0
LINE
  5
116
100
AcDbEntity
  8
Layer_1
 62
7
100
AcDbLine
 10
-26.695587
 20
-1.487056
 30
0.0
 11
-26.771802
 21
-0.774445
 31
0.0
  0
LINE
  5
117
100
AcDbEntity
  8
Layer_1
 62
7
100
AcDbLine
 10
-26.771802
 20
-0.774445
 30
0.0
 11
-26.826570
 21
0.220417
 31
0.0
  0
LINE
  5
118
100
AcDbEntity
  8
Layer_1
 62
7
100
AcDbLine
 10
-26.826570
 20
0.220417
 30
0.0
 11
-26.871509
 21
2.682693
 31
0.0
  0
LINE
  5
119
100
AcDbEntity
  8
Layer_1
 62
7
100
AcDbLine
 10
-26.871509
 20
2.682693
 30
0.0
 11
-26.829898
 21
5.151545
 31
0.0
  0
LINE
  5
11a
100
AcDbEntity
  8
Layer_1
 62
7
100
AcDbLine
 10
-26.829898
 20
5.151545
 30
0.0
 11
-26.776478
 21
6.154647
 31
0.0
  0
LINE
  5
11b
100
AcDbEntity
  8
Layer_1
 62
7
100
AcDbLine
 10
-26.776478
 20
6.154647
 30
0.0
 11
-26.701232
 21
6.878801
 31
0.0
  0
LINE
  5
11c
100
AcDbEntity
  8
Layer_1
 62
7
100
AcDbLine
 10
-26.701232
 20
6.878801
 30
0.0
 11
-26.269883
 21
9.196156
 31
0.0
  0
LINE
  5
11d
100
AcDbEntity
  8
Layer_1
 62
7
100
AcDbLine
 10
-26.269883
 20
9.196156
 30
0.0
 11
-25.764837
 21
11.163781
 31
0.0
  0
LINE
  5
11e
100
AcDbEntity
  8
Layer_1
 62
7
100
AcDbLine
 10
-25.764837
 20
11.163781
 30
0.0
 11
-25.497185
 21
11.975057
 31
0.0
  0
LINE
  5
11f
100
AcDbEntity
  8
Layer_1
 62
7
100
AcDbLine
 10
-25.497185
 20
11.975057
 30
0.0
 11
-25.226117
 21
12.649258
 31
0.0
  0
LINE
  5
120
100
AcDbEntity
  8
Layer_1
 62
7
100
AcDbLine
 10
-25.226117
 20
12.649258
 30
0.0
 11
-24.956636
 21
13.169817
 31
0.0
  0
LINE
  5
121
100
AcDbEntity
  8
Layer_1
 62
7
100
AcDbLine
 10
-24.956636
 20
13.169817
 30
0.0
 11
-24.693746
 21
13.520196
 31
0.0
  0
LINE
  5
122
100
AcDbEntity
  8
Layer_1
 62
7
100
AcDbLine
 10
-24.693746
 20
13.520196
 30
0.0
 11
-24.402092
 21
13.813904
 31
0.0
  0
LINE
  5
123
100
AcDbEntity
  8
Layer_1
 62
7
100
AcDbLine
 10
-24.402092
 20
13.813904
 30
0.0
 11
-23.605690
 21
13.536169
 31
0.0
  0
LINE
  5
124
100
AcDbEntity
  8
Layer_1
 62
7
100
AcDbLine
 10
-23.605690
 20
13.536169
 30
0.0
 11
-22.918687
 21
13.239215
 31
0.0
  0
LINE
  5
125
100
AcDbEntity
  8
Layer_1
 62
7
100
AcDbLine
 10
-22.918687
 20
13.239215
 30
0.0
 11
-22.385310
 21
12.915337
 31
0.0
  0
LINE
  5
126
100
AcDbEntity
  8
Layer_1
 62
7
100
AcDbLine
 10
-22.385310
 20
12.915337
 30
0.0
 11
-21.961333
 21
12.572239
 31
0.0
  0
LINE
  5
127
100
AcDbEntity
  8
Layer_1
 62
7
100
AcDbLine
 10
-21.961333
 20
12.572239
 30
0.0
 11
-21.861678
 21
8.534994
 31
0.0
  0
LINE
  5
128
100
AcDbEntity
  8
Layer_1
 62
7
100
AcDbLine
 10
-21.861678
 20
8.534994
 30
0.0
 11
-21.678625
 21
-2.157644
 31
0.0
  0
LINE
  5
129
100
AcDbEntity
  8
Layer_1
 62
7
100
AcDbLine
 10
-21.678625
 20
-2.157644
 30
0.0
 11
-21.595229
 21
-8.813065
 31
0.0
  0
LINE
  5
12a
100
AcDbEntity
  8
Layer_1
 62
7
100
AcDbLine
 10
-21.595229
 20
-8.813065
 30
0.0
 11
-20.183542
 21
-9.702065
 31
0.0
  0
LINE
  5
12b
100
AcDbEntity
  8
Layer_1
 62
7
100
AcDbLine
 10
-20.183542
 20
-9.702065
 30
0.0
 11
-17.020917
 21
-11.702089
 31
0.0
  0
LINE
  5
12c
100
AcDbEntity
  8
Layer_1
 62
7
100
AcDbLine
 10
-17.020917
 20
-11.702089
 30
0.0
 11
-15.195163
 21
-12.813142
 31
0.0
  0
LINE
  5
12d
100
AcDbEntity
  8
Layer_1
 62
7
100
AcDbLine
 10
-15.195163
 20
-12.813142
 30
0.0
 11
-15.142323
 21
-12.302206
 31
0.0
  0
LINE
  5
12e
100
AcDbEntity
  8
Layer_1
 62
7
100
AcDbLine
 10
-15.142323
 20
-12.302206
 30
0.0
 11
-15.120347
 21
-11.073778
 31
0.0
  0
LINE
  5
12f
100
AcDbEntity
  8
Layer_1
 62
7
100
AcDbLine
 10
-15.120347
 20
-11.073778
 30
0.0
 11
-15.120347
 21
-9.334442
 31
0.0
  0
LINE
  5
130
100
AcDbEntity
  8
Layer_1
 62
7
100
AcDbLine
 10
-15.120347
 20
-9.334442
 30
0.0
 11
-15.707835
 21
-8.635321
 31
0.0
  0
LINE
  5
131
100
AcDbEntity
  8
Layer_1
 62
7
100
AcDbLine
 10
-15.707835
 20
-8.635321
 30
0.0
 11
-16.353201
 21
-7.796754
 31
0.0
  0
LINE
  5
132
100
AcDbEntity
  8
Layer_1
 62
7
100
AcDbLine
 10
-16.353201
 20
-7.796754
 30
0.0
 11
-16.914600
 21
-6.923333
 31
0.0
  0
LINE
  5
133
100
AcDbEntity
  8
Layer_1
 62
7
100
AcDbLine
 10
-16.914600
 20
-6.923333
 30
0.0
 11
-17.391895
 21
-6.024738
 31
0.0
  0
LINE
  5
134
100
AcDbEntity
  8
Layer_1
 62
7
100
AcDbLine
 10
-17.391895
 20
-6.024738
 30
0.0
 11
-17.784949
 21
-5.110648
 31
0.0
  0
LINE
  5
135
100
AcDbEntity
  8
Layer_1
 62
7
100
AcDbLine
 10
-17.784949
 20
-5.110648
 30
0.0
 11
-18.093624
 21
-4.190688
 31
0.0
  0
LINE
  5
136
100
AcDbEntity
  8
Layer_1
 62
7
100
AcDbLine
 10
-18.093624
 20
-4.190688
 30
0.0
 11
-18.317784
 21
-3.274595
 31
0.0
  0
LINE
  5
137
100
AcDbEntity
  8
Layer_1
 62
7
100
AcDbLine
 10
-18.317784
 20
-3.274595
 30
0.0
 11
-18.457290
 21
-2.371964
 31
0.0
  0
LINE
  5
138
100
AcDbEntity
  8
Layer_1
 62
7
100
AcDbLine
 10
-18.457290
 20
-2.371964
 30
0.0
 11
-18.512006
 21
-1.492531
 31
0.0
  0
LINE
  5
139
100
AcDbEntity
  8
Layer_1
 62
7
100
AcDbLine
 10
-18.512006
 20
-1.492531
 30
0.0
 11
-18.481794
 21
-0.645949
 31
0.0
  0
LINE
  5
13a
100
AcDbEntity
  8
Layer_1
 62
7
100
AcDbLine
 10
-18.481794
 20
-0.645949
 30
0.0
 11
-18.366517
 21
0.158102
 31
0.0
  0
LINE
  5
13b
100
AcDbEntity
  8
Layer_1
 62
7
100
AcDbLine
 10
-18.366517
 20
0.158102
 30
0.0
 11
-18.166037
 21
0.909999
 31
0.0
  0
LINE
  5
13c
100
AcDbEntity
  8
Layer_1
 62
7
100
AcDbLine
 10
-18.166037
 20
0.909999
 30
0.0
 11
-17.880218
 21
1.600004
 31
0.0
  0
LINE
  5
13d
100
AcDbEntity
  8
Layer_1
 62
7
100
AcDbLine
 10
-17.880218
 20
1.600004
 30
0.0
 11
-17.508922
 21
2.218494
 31
0.0
  0
LINE
  5
13e
100
AcDbEntity
  8
Layer_1
 62
7
100
AcDbLine
 10
-17.508922
 20
2.218494
 30
0.0
 11
-17.052011
 21
2.755788
 31
0.0
  0
LINE
  5
13f
100
AcDbEntity
  8
Layer_1
 62
7
100
AcDbLine
 10
-17.052011
 20
2.755788
 30
0.0
 11
-16.509349
 21
3.202208
 31
0.0
  0
LINE
  5
140
100
AcDbEntity
  8
Layer_1
 62
7
100
AcDbLine
 10
-16.509349
 20
3.202208
 30
0.0
 11
-15.880797
 21
3.548071
 31
0.0
  0
LINE
  5
141
100
AcDbEntity
  8
Layer_1
 62
7
100
AcDbLine
 10
-15.880797
 20
3.548071
 30
0.0
 11
-15.464155
 21
3.694403
 31
0.0
  0
LINE
  5
142
100
AcDbEntity
  8
Layer_1
 62
7
100
AcDbLine
 10
-15.464155
 20
3.694403
 30
0.0
 11
-14.996424
 21
3.797358
 31
0.0
  0
LINE
  5
143
100
AcDbEntity
  8
Layer_1
 62
7
100
AcDbLine
 10
-14.996424
 20
3.797358
 30
0.0
 11
-14.492707
 21
3.857076
 31
0.0
  0
LINE
  5
144
100
AcDbEntity
  8
Layer_1
 62
7
100
AcDbLine
 10
-14.492707
 20
3.857076
 30
0.0
 11
-13.968109
 21
3.873727
 31
0.0
  0
LINE
  5
145
100
AcDbEntity
  8
Layer_1
 62
7
100
AcDbLine
 10
-13.968109
 20
3.873727
 30
0.0
 11
-13.437731
 21
3.847480
 31
0.0
  0
LINE
  5
146
100
AcDbEntity
  8
Layer_1
 62
7
100
AcDbLine
 10
-13.437731
 20
3.847480
 30
0.0
 11
-12.916676
 21
3.778308
 31
0.0
  0
LINE
  5
147
100
AcDbEntity
  8
Layer_1
 62
7
100
AcDbLine
 10
-12.916676
 20
3.778308
 30
0.0
 11
-12.420048
 21
3.666463
 31
0.0
  0
LINE
  5
148
100
AcDbEntity
  8
Layer_1
 62
7
100
AcDbLine
 10
-12.420048
 20
3.666463
 30
0.0
 11
-11.962949
 21
3.512088
 31
0.0
  0
LINE
  5
149
100
AcDbEntity
  8
Layer_1
 62
7
100
AcDbLine
 10
-11.962949
 20
3.512088
 30
0.0
 11
-11.075590
 21
3.102414
 31
0.0
  0
LINE
  5
14a
100
AcDbEntity
  8
Layer_1
 62
7
100
AcDbLine
 10
-11.075590
 20
3.102414
 30
0.0
 11
-10.231063
 21
2.613012
 31
0.0
  0
LINE
  5
14b
100
AcDbEntity
  8
Layer_1
 62
7
100
AcDbLine
 10
-10.231063
 20
2.613012
 30
0.0
 11
-9.432687
 21
2.046931
 31
0.0
  0
LINE
  5
14c
100
AcDbEntity
  8
Layer_1
 62
7
100
AcDbLine
 10
-9.432687
 20
2.046931
 30
0.0
 11
-8.683780
 21
1.407274
 31
0.0
  0
LINE
  5
14d
100
AcDbEntity
  8
Layer_1
 62
7
100
AcDbLine
 10
-8.683780
 20
1.407274
 30
0.0
 11
-7.987662
 21
0.697175
 31
0.0
  0
LINE
  5
14e
100
AcDbEntity
  8
Layer_1
 62
7
100
AcDbLine
 10
-7.987662
 20
0.697175
 30
0.0
 11
-7.347654
 21
-0.080263
 31
0.0
  0
LINE
  5
14f
100
AcDbEntity
  8
Layer_1
 62
7
100
AcDbLine
 10
-7.347654
 20
-0.080263
 30
0.0
 11
-6.767073
 21
-0.921990
 31
0.0
  0
LINE
  5
150
100
AcDbEntity
  8
Layer_1
 62
7
100
AcDbLine
 10
-6.767073
 20
-0.921990
 30
0.0
 11
-6.249239
 21
-1.824876
 31
0.0
  0
LINE
  5
151
100
AcDbEntity
  8
Layer_1
 62
7
100
AcDbLine
 10
-6.249239
 20
-1.824876
 30
0.0
 11
-5.882762
 21
-2.593988
 31
0.0
  0
LINE
  5
152
100
AcDbEntity
  8
Layer_1
 62
7
100
AcDbLine
 10
-5.882762
 20
-2.593988
 30
0.0
 11
-5.572925
 21
-3.380795
 31
0.0
  0
LINE
  5
153
100
AcDbEntity
  8
Layer_1
 62
7
100
AcDbLine
 10
-5.572925
 20
-3.380795
 30
0.0
 11
-5.321529
 21
-4.176380
 31
0.0
  0
LINE
  5
154
100
AcDbEntity
  8
Layer_1
 62
7
100
AcDbLine
 10
-5.321529
 20
-4.176380
 30
0.0
 11
-5.130378
 21
-4.971823
 31
0.0
  0
LINE
  5
155
100
AcDbEntity
  8
Layer_1
 62
7
100
AcDbLine
 10
-5.130378
 20
-4.971823
 30
0.0
 11
-5.001275
 21
-5.758235
 31
0.0
  0
LINE
  5
156
100
AcDbEntity
  8
Layer_1
 62
7
100
AcDbLine
 10
-5.001275
 20
-5.758235
 30
0.0
 11
-4.936022
 21
-6.526726
 31
0.0
  0
LINE
  5
157
100
AcDbEntity
  8
Layer_1
 62
7
100
AcDbLine
 10
-4.936022
 20
-6.526726
 30
0.0
 11
-4.936417
 21
-7.268378
 31
0.0
  0
LINE
  5
158
100
AcDbEntity
  8
Layer_1
 62
7
100
AcDbLine
 10
-4.936417
 20
-7.268378
 30
0.0
 11
-5.004275
 21
-7.974272
 31
0.0
  0
LINE
  5
159
100
AcDbEntity
  8
Layer_1
 62
7
100
AcDbLine
 10
-5.004275
 20
-7.974272
 30
0.0
 11
-5.162561
 21
-8.752867
 31
0.0
  0
LINE
  5
15a
100
AcDbEntity
  8
Layer_1
 62
7
100
AcDbLine
 10
-5.162561
 20
-8.752867
 30
0.0
 11
-5.394089
 21
-9.453371
 31
0.0
  0
LINE
  5
15b
100
AcDbEntity
  8
Layer_1
 62
7
100
AcDbLine
 10
-5.394089
 20
-9.453371
 30
0.0
 11
-5.699935
 21
-10.077110
 31
0.0
  0
LINE
  5
15c
100
AcDbEntity
  8
Layer_1
 62
7
100
AcDbLine
 10
-5.699935
 20
-10.077110
 30
0.0
 11
-6.081177
 21
-10.625383
 31
0.0
  0
LINE
  5
15d
100
AcDbEntity
  8
Layer_1
 62
7
100
AcDbLine
 10
-6.081177
 20
-10.625383
 30
0.0
 11
-6.538893
 21
-11.099516
 31
0.0
  0
LINE
  5
15e
100
AcDbEntity
  8
Layer_1
 62
7
100
AcDbLine
 10
-6.538893
 20
-11.099516
 30
0.0
 11
-7.074159
 21
-11.500808
 31
0.0
  0
LINE
  5
15f
100
AcDbEntity
  8
Layer_1
 62
7
100
AcDbLine
 10
-7.074159
 20
-11.500808
 30
0.0
 11
-7.688052
 21
-11.830613
 31
0.0
  0
LINE
  5
160
100
AcDbEntity
  8
Layer_1
 62
7
100
AcDbLine
 10
-7.688052
 20
-11.830613
 30
0.0
 11
-8.381651
 21
-12.090173
 31
0.0
  0
LINE
  5
161
100
AcDbEntity
  8
Layer_1
 62
7
100
AcDbLine
 10
-8.381651
 20
-12.090173
 30
0.0
 11
-8.502614
 21
-12.171538
 31
0.0
  0
LINE
  5
162
100
AcDbEntity
  8
Layer_1
 62
7
100
AcDbLine
 10
-8.502614
 20
-12.171538
 30
0.0
 11
-8.573084
 21
-12.372903
 31
0.0
  0
LINE
  5
163
100
AcDbEntity
  8
Layer_1
 62
7
100
AcDbLine
 10
-8.573084
 20
-12.372903
 30
0.0
 11
-8.614018
 21
-13.433099
 31
0.0
  0
LINE
  5
164
100
AcDbEntity
  8
Layer_1
 62
7
100
AcDbLine
 10
-8.614018
 20
-13.433099
 30
0.0
 11
-8.528355
 21
-15.687039
 31
0.0
  0
LINE
  5
165
100
AcDbEntity
  8
Layer_1
 62
7
100
AcDbLine
 10
-8.528355
 20
-15.687039
 30
0.0
 11
-8.442692
 21
-16.669313
 31
0.0
  0
LINE
  5
166
100
AcDbEntity
  8
Layer_1
 62
7
100
AcDbLine
 10
-8.442692
 20
-16.669313
 30
0.0
 11
-7.366511
 21
-17.296806
 31
0.0
  0
LINE
  5
167
100
AcDbEntity
  8
Layer_1
 62
7
100
AcDbLine
 10
-7.366511
 20
-17.296806
 30
0.0
 11
-4.829732
 21
-18.797466
 31
0.0
  0
LINE
  5
168
100
AcDbEntity
  8
Layer_1
 62
7
100
AcDbLine
 10
-4.829732
 20
-18.797466
 30
0.0
 11
-2.804804
 21
-20.005547
 31
0.0
  0
LINE
  5
169
100
AcDbEntity
  8
Layer_1
 62
7
100
AcDbLine
 10
-2.804804
 20
-20.005547
 30
0.0
 11
-2.240475
 21
-20.340403
 31
0.0
  0
LINE
  5
16a
100
AcDbEntity
  8
Layer_1
 62
7
100
AcDbLine
 10
-2.240475
 20
-20.340403
 30
0.0
 11
-2.241886
 21
-21.177926
 31
0.0
  0
LINE
  5
16b
100
AcDbEntity
  8
Layer_1
 62
7
100
AcDbLine
 10
-2.241886
 20
-21.177926
 30
0.0
 11
-2.267112
 21
-21.911224
 31
0.0
  0
LINE
  5
16c
100
AcDbEntity
  8
Layer_1
 62
7
100
AcDbLine
 10
-2.267112
 20
-21.911224
 30
0.0
 11
-2.325653
 21
-22.498105
 31
0.0
  0
LINE
  5
16d
100
AcDbEntity
  8
Layer_1
 62
7
100
AcDbLine
 10
-2.325653
 20
-22.498105
 30
0.0
 11
-2.400150
 21
-22.812529
 31
0.0
  0
LINE
  5
16e
100
AcDbEntity
  8
Layer_1
 62
7
100
AcDbLine
 10
-2.400150
 20
-22.812529
 30
0.0
 11
-2.472223
 21
-22.900018
 31
0.0
  0
LINE
  5
16f
100
AcDbEntity
  8
Layer_1
 62
7
100
AcDbLine
 10
-2.472223
 20
-22.900018
 30
0.0
 11
-2.595918
 21
-22.945794
 31
0.0
  0
LINE
  5
170
100
AcDbEntity
  8
Layer_1
 62
7
100
AcDbLine
 10
-2.595918
 20
-22.945794
 30
0.0
 11
-3.083386
 21
-22.926321
 31
0.0
  0
LINE
  5
171
100
AcDbEntity
  8
Layer_1
 62
7
100
AcDbLine
 10
-3.083386
 20
-22.926321
 30
0.0
 11
-4.032984
 21
-22.782557
 31
0.0
  0
LINE
  5
172
100
AcDbEntity
  8
Layer_1
 62
7
100
AcDbLine
 10
-4.032984
 20
-22.782557
 30
0.0
 11
-4.033046
 21
-22.782557
 31
0.0
  0
LINE
  5
173
100
AcDbEntity
  8
Layer_1
 62
7
100
AcDbLine
 10
-0.421400
 20
-22.700063
 30
0.0
 11
-0.541285
 21
-22.560617
 31
0.0
  0
LINE
  5
174
100
AcDbEntity
  8
Layer_1
 62
7
100
AcDbLine
 10
-0.541285
 20
-22.560617
 30
0.0
 11
-0.627196
 21
-22.319458
 31
0.0
  0
LINE
  5
175
100
AcDbEntity
  8
Layer_1
 62
7
100
AcDbLine
 10
-0.627196
 20
-22.319458
 30
0.0
 11
-0.738474
 21
-21.356798
 31
0.0
  0
LINE
  5
176
100
AcDbEntity
  8
Layer_1
 62
7
100
AcDbLine
 10
-0.738474
 20
-21.356798
 30
0.0
 11
-0.816500
 21
-20.189358
 31
0.0
  0
LINE
  5
177
100
AcDbEntity
  8
Layer_1
 62
7
100
AcDbLine
 10
-0.816500
 20
-20.189358
 30
0.0
 11
-0.366649
 21
-19.860343
 31
0.0
  0
LINE
  5
178
100
AcDbEntity
  8
Layer_1
 62
7
100
AcDbLine
 10
-0.366649
 20
-19.860343
 30
0.0
 11
1.381285
 21
-18.777316
 31
0.0
  0
LINE
  5
179
100
AcDbEntity
  8
Layer_1
 62
7
100
AcDbLine
 10
1.381285
 20
-18.777316
 30
0.0
 11
3.754046
 21
-17.409949
 31
0.0
  0
LINE
  5
17a
100
AcDbEntity
  8
Layer_1
 62
7
100
AcDbLine
 10
3.754046
 20
-17.409949
 30
0.0
 11
6.915431
 21
-15.600848
 31
0.0
  0
LINE
  5
17b
100
AcDbEntity
  8
Layer_1
 62
7
100
AcDbLine
 10
6.915431
 20
-15.600848
 30
0.0
 11
11.772328
 21
-12.765051
 31
0.0
  0
LINE
  5
17c
100
AcDbEntity
  8
Layer_1
 62
7
100
AcDbLine
 10
11.772328
 20
-12.765051
 30
0.0
 11
16.238015
 21
-10.127656
 31
0.0
  0
LINE
  5
17d
100
AcDbEntity
  8
Layer_1
 62
7
100
AcDbLine
 10
16.238015
 20
-10.127656
 30
0.0
 11
18.225772
 21
-8.913734
 31
0.0
  0
LINE
  5
17e
100
AcDbEntity
  8
Layer_1
 62
7
100
AcDbLine
 10
18.225772
 20
-8.913734
 30
0.0
 11
18.331201
 21
-7.859097
 31
0.0
  0
LINE
  5
17f
100
AcDbEntity
  8
Layer_1
 62
7
100
AcDbLine
 10
18.331201
 20
-7.859097
 30
0.0
 11
18.461148
 21
-5.541093
 31
0.0
  0
LINE
  5
180
100
AcDbEntity
  8
Layer_1
 62
7
100
AcDbLine
 10
18.461148
 20
-5.541093
 30
0.0
 11
18.587830
 21
-3.187840
 31
0.0
  0
LINE
  5
181
100
AcDbEntity
  8
Layer_1
 62
7
100
AcDbLine
 10
18.587830
 20
-3.187840
 30
0.0
 11
18.685397
 21
-2.048396
 31
0.0
  0
LINE
  5
182
100
AcDbEntity
  8
Layer_1
 62
7
100
AcDbLine
 10
18.685397
 20
-2.048396
 30
0.0
 11
18.698218
 21
-1.829335
 31
0.0
  0
LINE
  5
183
100
AcDbEntity
  8
Layer_1
 62
7
100
AcDbLine
 10
18.698218
 20
-1.829335
 30
0.0
 11
18.621148
 21
-1.688845
 31
0.0
  0
LINE
  5
184
100
AcDbEntity
  8
Layer_1
 62
7
100
AcDbLine
 10
18.621148
 20
-1.688845
 30
0.0
 11
18.391022
 21
-1.719635
 31
0.0
  0
LINE
  5
185
100
AcDbEntity
  8
Layer_1
 62
7
100
AcDbLine
 10
18.391022
 20
-1.719635
 30
0.0
 11
17.926848
 21
-1.914340
 31
0.0
  0
LINE
  5
186
100
AcDbEntity
  8
Layer_1
 62
7
100
AcDbLine
 10
17.926848
 20
-1.914340
 30
0.0
 11
16.481790
 21
-2.707102
 31
0.0
  0
LINE
  5
187
100
AcDbEntity
  8
Layer_1
 62
7
100
AcDbLine
 10
16.481790
 20
-2.707102
 30
0.0
 11
15.809235
 21
-3.059767
 31
0.0
  0
LINE
  5
188
100
AcDbEntity
  8
Layer_1
 62
7
100
AcDbLine
 10
15.809235
 20
-3.059767
 30
0.0
 11
15.689983
 21
-3.178385
 31
0.0
  0
LINE
  5
189
100
AcDbEntity
  8
Layer_1
 62
7
100
AcDbLine
 10
15.689983
 20
-3.178385
 30
0.0
 11
15.518925
 21
-3.446694
 31
0.0
  0
LINE
  5
18a
100
AcDbEntity
  8
Layer_1
 62
7
100
AcDbLine
 10
15.518925
 20
-3.446694
 30
0.0
 11
15.112798
 21
-4.273069
 31
0.0
  0
LINE
  5
18b
100
AcDbEntity
  8
Layer_1
 62
7
100
AcDbLine
 10
15.112798
 20
-4.273069
 30
0.0
 11
14.667866
 21
-5.221336
 31
0.0
  0
LINE
  5
18c
100
AcDbEntity
  8
Layer_1
 62
7
100
AcDbLine
 10
14.667866
 20
-5.221336
 30
0.0
 11
14.173491
 21
-6.106046
 31
0.0
  0
LINE
  5
18d
100
AcDbEntity
  8
Layer_1
 62
7
100
AcDbLine
 10
14.173491
 20
-6.106046
 30
0.0
 11
13.629229
 21
-6.927708
 31
0.0
  0
LINE
  5
18e
100
AcDbEntity
  8
Layer_1
 62
7
100
AcDbLine
 10
13.629229
 20
-6.927708
 30
0.0
 11
13.034636
 21
-7.686885
 31
0.0
  0
LINE
  5
18f
100
AcDbEntity
  8
Layer_1
 62
7
100
AcDbLine
 10
13.034636
 20
-7.686885
 30
0.0
 11
12.389269
 21
-8.384087
 31
0.0
  0
LINE
  5
190
100
AcDbEntity
  8
Layer_1
 62
7
100
AcDbLine
 10
12.389269
 20
-8.384087
 30
0.0
 11
11.692682
 21
-9.019821
 31
0.0
  0
LINE
  5
191
100
AcDbEntity
  8
Layer_1
 62
7
100
AcDbLine
 10
11.692682
 20
-9.019821
 30
0.0
 11
10.944434
 21
-9.594595
 31
0.0
  0
LINE
  5
192
100
AcDbEntity
  8
Layer_1
 62
7
100
AcDbLine
 10
10.944434
 20
-9.594595
 30
0.0
 11
10.144078
 21
-10.108945
 31
0.0
  0
LINE
  5
193
100
AcDbEntity
  8
Layer_1
 62
7
100
AcDbLine
 10
10.144078
 20
-10.108945
 30
0.0
 11
9.294538
 21
-10.555307
 31
0.0
  0
LINE
  5
194
100
AcDbEntity
  8
Layer_1
 62
7
100
AcDbLine
 10
9.294538
 20
-10.555307
 30
0.0
 11
8.506483
 21
-10.846194
 31
0.0
  0
LINE
  5
195
100
AcDbEntity
  8
Layer_1
 62
7
100
AcDbLine
 10
8.506483
 20
-10.846194
 30
0.0
 11
7.698382
 21
-11.004549
 31
0.0
  0
LINE
  5
196
100
AcDbEntity
  8
Layer_1
 62
7
100
AcDbLine
 10
7.698382
 20
-11.004549
 30
0.0
 11
6.788699
 21
-11.053345
 31
0.0
  0
LINE
  5
197
100
AcDbEntity
  8
Layer_1
 62
7
100
AcDbLine
 10
6.788699
 20
-11.053345
 30
0.0
 11
5.770367
 21
-10.998283
 31
0.0
  0
LINE
  5
198
100
AcDbEntity
  8
Layer_1
 62
7
100
AcDbLine
 10
5.770367
 20
-10.998283
 30
0.0
 11
5.402744
 21
-10.914407
 31
0.0
  0
LINE
  5
199
100
AcDbEntity
  8
Layer_1
 62
7
100
AcDbLine
 10
5.402744
 20
-10.914407
 30
0.0
 11
5.058832
 21
-10.782383
 31
0.0
  0
LINE
  5
19a
100
AcDbEntity
  8
Layer_1
 62
7
100
AcDbLine
 10
5.058832
 20
-10.782383
 30
0.0
 11
4.545819
 21
-10.504705
 31
0.0
  0
LINE
  5
19b
100
AcDbEntity
  8
Layer_1
 62
7
100
AcDbLine
 10
4.545819
 20
-10.504705
 30
0.0
 11
4.081046
 21
-10.160366
 31
0.0
  0
LINE
  5
19c
100
AcDbEntity
  8
Layer_1
 62
7
100
AcDbLine
 10
4.081046
 20
-10.160366
 30
0.0
 11
3.666209
 21
-9.751905
 31
0.0
  0
LINE
  5
19d
100
AcDbEntity
  8
Layer_1
 62
7
100
AcDbLine
 10
3.666209
 20
-9.751905
 30
0.0
 11
3.303004
 21
-9.281836
 31
0.0
  0
LINE
  5
19e
100
AcDbEntity
  8
Layer_1
 62
7
100
AcDbLine
 10
3.303004
 20
-9.281836
 30
0.0
 11
2.993129
 21
-8.752669
 31
0.0
  0
LINE
  5
19f
100
AcDbEntity
  8
Layer_1
 62
7
100
AcDbLine
 10
2.993129
 20
-8.752669
 30
0.0
 11
2.738278
 21
-8.166945
 31
0.0
  0
LINE
  5
1a0
100
AcDbEntity
  8
Layer_1
 62
7
100
AcDbLine
 10
2.738278
 20
-8.166945
 30
0.0
 11
2.540149
 21
-7.527148
 31
0.0
  0
LINE
  5
1a1
100
AcDbEntity
  8
Layer_1
 62
7
100
AcDbLine
 10
2.540149
 20
-7.527148
 30
0.0
 11
2.400437
 21
-6.835816
 31
0.0
  0
LINE
  5
1a2
100
AcDbEntity
  8
Layer_1
 62
7
100
AcDbLine
 10
2.400437
 20
-6.835816
 30
0.0
 11
2.332653
 21
-6.190995
 31
0.0
  0
LINE
  5
1a3
100
AcDbEntity
  8
Layer_1
 62
7
100
AcDbLine
 10
2.332653
 20
-6.190995
 30
0.0
 11
2.323705
 21
-5.524160
 31
0.0
  0
LINE
  5
1a4
100
AcDbEntity
  8
Layer_1
 62
7
100
AcDbLine
 10
2.323705
 20
-5.524160
 30
0.0
 11
2.373456
 21
-4.836018
 31
0.0
  0
LINE
  5
1a5
100
AcDbEntity
  8
Layer_1
 62
7
100
AcDbLine
 10
2.373456
 20
-4.836018
 30
0.0
 11
2.481772
 21
-4.127301
 31
0.0
  0
LINE
  5
1a6
100
AcDbEntity
  8
Layer_1
 62
7
100
AcDbLine
 10
2.481772
 20
-4.127301
 30
0.0
 11
2.648517
 21
-3.398716
 31
0.0
  0
LINE
  5
1a7
100
AcDbEntity
  8
Layer_1
 62
7
100
AcDbLine
 10
2.648517
 20
-3.398716
 30
0.0
 11
2.873554
 21
-2.650968
 31
0.0
  0
LINE
  5
1a8
100
AcDbEntity
  8
Layer_1
 62
7
100
AcDbLine
 10
2.873554
 20
-2.650968
 30
0.0
 11
3.156749
 21
-1.884735
 31
0.0
  0
LINE
  5
1a9
100
AcDbEntity
  8
Layer_1
 62
7
100
AcDbLine
 10
3.156749
 20
-1.884735
 30
0.0
 11
3.497965
 21
-1.100778
 31
0.0
  0
LINE
  5
1aa
100
AcDbEntity
  8
Layer_1
 62
7
100
AcDbLine
 10
3.497965
 20
-1.100778
 30
0.0
 11
3.834882
 21
-0.461319
 31
0.0
  0
LINE
  5
1ab
100
AcDbEntity
  8
Layer_1
 62
7
100
AcDbLine
 10
3.834882
 20
-0.461319
 30
0.0
 11
4.255364
 21
0.203766
 31
0.0
  0
LINE
  5
1ac
100
AcDbEntity
  8
Layer_1
 62
7
100
AcDbLine
 10
4.255364
 20
0.203766
 30
0.0
 11
4.743365
 21
0.875850
 31
0.0
  0
LINE
  5
1ad
100
AcDbEntity
  8
Layer_1
 62
7
100
AcDbLine
 10
4.743365
 20
0.875850
 30
0.0
 11
5.282840
 21
1.536391
 31
0.0
  0
LINE
  5
1ae
100
AcDbEntity
  8
Layer_1
 62
7
100
AcDbLine
 10
5.282840
 20
1.536391
 30
0.0
 11
5.857742
 21
2.166762
 31
0.0
  0
LINE
  5
1af
100
AcDbEntity
  8
Layer_1
 62
7
100
AcDbLine
 10
5.857742
 20
2.166762
 30
0.0
 11
6.452025
 21
2.748394
 31
0.0
  0
LINE
  5
1b0
100
AcDbEntity
  8
Layer_1
 62
7
100
AcDbLine
 10
6.452025
 20
2.748394
 30
0.0
 11
7.049644
 21
3.262688
 31
0.0
  0
LINE
  5
1b1
100
AcDbEntity
  8
Layer_1
 62
7
100
AcDbLine
 10
7.049644
 20
3.262688
 30
0.0
 11
7.634553
 21
3.691073
 31
0.0
  0
LINE
  5
1b2
100
AcDbEntity
  8
Layer_1
 62
7
100
AcDbLine
 10
7.634553
 20
3.691073
 30
0.0
 11
8.502494
 21
4.195432
 31
0.0
  0
LINE
  5
1b3
100
AcDbEntity
  8
Layer_1
 62
7
100
AcDbLine
 10
8.502494
 20
4.195432
 30
0.0
 11
9.380671
 21
4.571832
 31
0.0
  0
LINE
  5
1b4
100
AcDbEntity
  8
Layer_1
 62
7
100
AcDbLine
 10
9.380671
 20
4.571832
 30
0.0
 11
10.256608
 21
4.819482
 31
0.0
  0
LINE
  5
1b5
100
AcDbEntity
  8
Layer_1
 62
7
100
AcDbLine
 10
10.256608
 20
4.819482
 30
0.0
 11
11.117828
 21
4.937620
 31
0.0
  0
LINE
  5
1b6
100
AcDbEntity
  8
Layer_1
 62
7
100
AcDbLine
 10
11.117828
 20
4.937620
 30
0.0
 11
11.951853
 21
4.925485
 31
0.0
  0
LINE
  5
1b7
100
AcDbEntity
  8
Layer_1
 62
7
100
AcDbLine
 10
11.951853
 20
4.925485
 30
0.0
 11
12.746207
 21
4.782229
 31
0.0
  0
LINE
  5
1b8
100
AcDbEntity
  8
Layer_1
 62
7
100
AcDbLine
 10
12.746207
 20
4.782229
 30
0.0
 11
13.488414
 21
4.507090
 31
0.0
  0
LINE
  5
1b9
100
AcDbEntity
  8
Layer_1
 62
7
100
AcDbLine
 10
13.488414
 20
4.507090
 30
0.0
 11
14.165996
 21
4.099336
 31
0.0
  0
LINE
  5
1ba
100
AcDbEntity
  8
Layer_1
 62
7
100
AcDbLine
 10
14.165996
 20
4.099336
 30
0.0
 11
14.623139
 21
3.790020
 31
0.0
  0
LINE
  5
1bb
100
AcDbEntity
  8
Layer_1
 62
7
100
AcDbLine
 10
14.623139
 20
3.790020
 30
0.0
 11
14.891011
 21
3.661383
 31
0.0
  0
LINE
  5
1bc
100
AcDbEntity
  8
Layer_1
 62
7
100
AcDbLine
 10
14.891011
 20
3.661383
 30
0.0
 11
15.296187
 21
3.850416
 31
0.0
  0
LINE
  5
1bd
100
AcDbEntity
  8
Layer_1
 62
7
100
AcDbLine
 10
15.296187
 20
3.850416
 30
0.0
 11
16.083445
 21
4.304934
 31
0.0
  0
LINE
  5
1be
100
AcDbEntity
  8
Layer_1
 62
7
100
AcDbLine
 10
16.083445
 20
4.304934
 30
0.0
 11
17.215882
 21
4.948458
 31
0.0
  0
LINE
  5
1bf
100
AcDbEntity
  8
Layer_1
 62
7
100
AcDbLine
 10
17.215882
 20
4.948458
 30
0.0
 11
17.980831
 21
5.399590
 31
0.0
  0
LINE
  5
1c0
100
AcDbEntity
  8
Layer_1
 62
7
100
AcDbLine
 10
17.980831
 20
5.399590
 30
0.0
 11
18.672701
 21
5.850750
 31
0.0
  0
LINE
  5
1c1
100
AcDbEntity
  8
Layer_1
 62
7
100
AcDbLine
 10
18.672701
 20
5.850750
 30
0.0
 11
18.805478
 21
9.472508
 31
0.0
  0
LINE
  5
1c2
100
AcDbEntity
  8
Layer_1
 62
7
100
AcDbLine
 10
18.805478
 20
9.472508
 30
0.0
 11
18.950888
 21
12.425907
 31
0.0
  0
LINE
  5
1c3
100
AcDbEntity
  8
Layer_1
 62
7
100
AcDbLine
 10
18.950888
 20
12.425907
 30
0.0
 11
19.031572
 21
13.002233
 31
0.0
  0
LINE
  5
1c4
100
AcDbEntity
  8
Layer_1
 62
7
100
AcDbLine
 10
19.031572
 20
13.002233
 30
0.0
 11
19.080427
 21
13.138546
 31
0.0
  0
LINE
  5
1c5
100
AcDbEntity
  8
Layer_1
 62
7
100
AcDbLine
 10
19.080427
 20
13.138546
 30
0.0
 11
19.137440
 21
13.201482
 31
0.0
  0
LINE
  5
1c6
100
AcDbEntity
  8
Layer_1
 62
7
100
AcDbLine
 10
19.137440
 20
13.201482
 30
0.0
 11
20.321133
 21
13.742954
 31
0.0
  0
LINE
  5
1c7
100
AcDbEntity
  8
Layer_1
 62
7
100
AcDbLine
 10
20.321133
 20
13.742954
 30
0.0
 11
21.239829
 21
14.086503
 31
0.0
  0
LINE
  5
1c8
100
AcDbEntity
  8
Layer_1
 62
7
100
AcDbLine
 10
21.239829
 20
14.086503
 30
0.0
 11
21.311732
 21
14.060256
 31
0.0
  0
LINE
  5
1c9
100
AcDbEntity
  8
Layer_1
 62
7
100
AcDbLine
 10
21.311732
 20
14.060256
 30
0.0
 11
21.392902
 21
13.975589
 31
0.0
  0
LINE
  5
1ca
100
AcDbEntity
  8
Layer_1
 62
7
100
AcDbLine
 10
21.392902
 20
13.975589
 30
0.0
 11
21.598326
 21
13.597440
 31
0.0
  0
LINE
  5
1cb
100
AcDbEntity
  8
Layer_1
 62
7
100
AcDbLine
 10
21.598326
 20
13.597440
 30
0.0
 11
22.288473
 21
11.769910
 31
0.0
  0
LINE
  5
1cc
100
AcDbEntity
  8
Layer_1
 62
7
100
AcDbLine
 10
22.288473
 20
11.769910
 30
0.0
 11
22.603091
 21
10.822772
 31
0.0
  0
LINE
  5
1cd
100
AcDbEntity
  8
Layer_1
 62
7
100
AcDbLine
 10
22.603091
 20
10.822772
 30
0.0
 11
22.851901
 21
9.928551
 31
0.0
  0
LINE
  5
1ce
100
AcDbEntity
  8
Layer_1
 62
7
100
AcDbLine
 10
22.851901
 20
9.928551
 30
0.0
 11
23.345195
 21
7.522635
 31
0.0
  0
LINE
  5
1cf
100
AcDbEntity
  8
Layer_1
 62
7
100
AcDbLine
 10
23.345195
 20
7.522635
 30
0.0
 11
23.478485
 21
6.518573
 31
0.0
  0
LINE
  5
1d0
100
AcDbEntity
  8
Layer_1
 62
7
100
AcDbLine
 10
23.478485
 20
6.518573
 30
0.0
 11
23.562214
 21
5.288874
 31
0.0
  0
LINE
  5
1d1
100
AcDbEntity
  8
Layer_1
 62
7
100
AcDbLine
 10
23.562214
 20
5.288874
 30
0.0
 11
23.598054
 21
3.908215
 31
0.0
  0
LINE
  5
1d2
100
AcDbEntity
  8
Layer_1
 62
7
100
AcDbLine
 10
23.598054
 20
3.908215
 30
0.0
 11
23.587680
 21
2.451299
 31
0.0
  0
LINE
  5
1d3
100
AcDbEntity
  8
Layer_1
 62
7
100
AcDbLine
 10
23.587680
 20
2.451299
 30
0.0
 11
23.532762
 21
0.992803
 31
0.0
  0
LINE
  5
1d4
100
AcDbEntity
  8
Layer_1
 62
7
100
AcDbLine
 10
23.532762
 20
0.992803
 30
0.0
 11
23.434975
 21
-0.392570
 31
0.0
  0
LINE
  5
1d5
100
AcDbEntity
  8
Layer_1
 62
7
100
AcDbLine
 10
23.434975
 20
-0.392570
 30
0.0
 11
23.295992
 21
-1.630114
 31
0.0
  0
LINE
  5
1d6
100
AcDbEntity
  8
Layer_1
 62
7
100
AcDbLine
 10
23.295992
 20
-1.630114
 30
0.0
 11
23.117485
 21
-2.645098
 31
0.0
  0
LINE
  5
1d7
100
AcDbEntity
  8
Layer_1
 62
7
100
AcDbLine
 10
23.117485
 20
-2.645098
 30
0.0
 11
22.708597
 21
-4.369786
 31
0.0
  0
LINE
  5
1d8
100
AcDbEntity
  8
Layer_1
 62
7
100
AcDbLine
 10
22.708597
 20
-4.369786
 30
0.0
 11
22.303328
 21
-5.869431
 31
0.0
  0
LINE
  5
1d9
100
AcDbEntity
  8
Layer_1
 62
7
100
AcDbLine
 10
22.303328
 20
-5.869431
 30
0.0
 11
21.884920
 21
-7.183683
 31
0.0
  0
LINE
  5
1da
100
AcDbEntity
  8
Layer_1
 62
7
100
AcDbLine
 10
21.884920
 20
-7.183683
 30
0.0
 11
21.436617
 21
-8.352168
 31
0.0
  0
LINE
  5
1db
100
AcDbEntity
  8
Layer_1
 62
7
100
AcDbLine
 10
21.436617
 20
-8.352168
 30
0.0
 11
20.941661
 21
-9.414537
 31
0.0
  0
LINE
  5
1dc
100
AcDbEntity
  8
Layer_1
 62
7
100
AcDbLine
 10
20.941661
 20
-9.414537
 30
0.0
 11
20.383294
 21
-10.410386
 31
0.0
  0
LINE
  5
1dd
100
AcDbEntity
  8
Layer_1
 62
7
100
AcDbLine
 10
20.383294
 20
-10.410386
 30
0.0
 11
19.744761
 21
-11.379368
 31
0.0
  0
LINE
  5
1de
100
AcDbEntity
  8
Layer_1
 62
7
100
AcDbLine
 10
19.744761
 20
-11.379368
 30
0.0
 11
19.009303
 21
-12.361106
 31
0.0
  0
LINE
  5
1df
100
AcDbEntity
  8
Layer_1
 62
7
100
AcDbLine
 10
19.009303
 20
-12.361106
 30
0.0
 11
17.956396
 21
-13.597127
 31
0.0
  0
LINE
  5
1e0
100
AcDbEntity
  8
Layer_1
 62
7
100
AcDbLine
 10
17.956396
 20
-13.597127
 30
0.0
 11
16.782093
 21
-14.790814
 31
0.0
  0
LINE
  5
1e1
100
AcDbEntity
  8
Layer_1
 62
7
100
AcDbLine
 10
16.782093
 20
-14.790814
 30
0.0
 11
15.493508
 21
-15.936918
 31
0.0
  0
LINE
  5
1e2
100
AcDbEntity
  8
Layer_1
 62
7
100
AcDbLine
 10
15.493508
 20
-15.936918
 30
0.0
 11
14.097756
 21
-17.030247
 31
0.0
  0
LINE
  5
1e3
100
AcDbEntity
  8
Layer_1
 62
7
100
AcDbLine
 10
14.097756
 20
-17.030247
 30
0.0
 11
12.601954
 21
-18.065523
 31
0.0
  0
LINE
  5
1e4
100
AcDbEntity
  8
Layer_1
 62
7
100
AcDbLine
 10
12.601954
 20
-18.065523
 30
0.0
 11
11.013217
 21
-19.037496
 31
0.0
  0
LINE
  5
1e5
100
AcDbEntity
  8
Layer_1
 62
7
100
AcDbLine
 10
11.013217
 20
-19.037496
 30
0.0
 11
9.338660
 21
-19.941002
 31
0.0
  0
LINE
  5
1e6
100
AcDbEntity
  8
Layer_1
 62
7
100
AcDbLine
 10
9.338660
 20
-19.941002
 30
0.0
 11
7.585399
 21
-20.770708
 31
0.0
  0
LINE
  5
1e7
100
AcDbEntity
  8
Layer_1
 62
7
100
AcDbLine
 10
7.585399
 20
-20.770708
 30
0.0
 11
6.312077
 21
-21.297391
 31
0.0
  0
LINE
  5
1e8
100
AcDbEntity
  8
Layer_1
 62
7
100
AcDbLine
 10
6.312077
 20
-21.297391
 30
0.0
 11
5.024005
 21
-21.764807
 31
0.0
  0
LINE
  5
1e9
100
AcDbEntity
  8
Layer_1
 62
7
100
AcDbLine
 10
5.024005
 20
-21.764807
 30
0.0
 11
3.767482
 21
-22.161809
 31
0.0
  0
LINE
  5
1ea
100
AcDbEntity
  8
Layer_1
 62
7
100
AcDbLine
 10
3.767482
 20
-22.161809
 30
0.0
 11
2.588809
 21
-22.477221
 31
0.0
  0
LINE
  5
1eb
100
AcDbEntity
  8
Layer_1
 62
7
100
AcDbLine
 10
2.588809
 20
-22.477221
 30
0.0
 11
1.534285
 21
-22.699894
 31
0.0
  0
LINE
  5
1ec
100
AcDbEntity
  8
Layer_1
 62
7
100
AcDbLine
 10
1.534285
 20
-22.699894
 30
0.0
 11
0.650209
 21
-22.818681
 31
0.0
  0
LINE
  5
1ed
100
AcDbEntity
  8
Layer_1
 62
7
100
AcDbLine
 10
0.650209
 20
-22.818681
 30
0.0
 11
-0.017120
 21
-22.822350
 31
0.0
  0
LINE
  5
1ee
100
AcDbEntity
  8
Layer_1
 62
7
100
AcDbLine
 10
-0.017120
 20
-22.822350
 30
0.0
 11
-0.255035
 21
-22.777590
 31
0.0
  0
LINE
  5
1ef
100
AcDbEntity
  8
Layer_1
 62
7
100
AcDbLine
 10
-0.255035
 20
-22.777590
 30
0.0
 11
-0.421401
 21
-22.699866
 31
0.0
  0
LINE
  5
1f0
100
AcDbEntity
  8
Layer_1
 62
7
100
AcDbLine
 10
-0.421401
 20
-22.699866
 30
0.0
 11
-0.421401
 21
-22.699866
 31
0.0
  0
LINE
  5
1f1
100
AcDbEntity
  8
Layer_1
 62
7
100
AcDbLine
 10
-3.634693
 20
8.245970
 30
0.0
 11
-4.916142
 21
8.475897
 31
0.0
  0
LINE
  5
1f2
100
AcDbEntity
  8
Layer_1
 62
7
100
AcDbLine
 10
-4.916142
 20
8.475897
 30
0.0
 11
-6.080395
 21
8.775193
 31
0.0
  0
LINE
  5
1f3
100
AcDbEntity
  8
Layer_1
 62
7
100
AcDbLine
 10
-6.080395
 20
8.775193
 30
0.0
 11
-7.129032
 21
9.144735
 31
0.0
  0
LINE
  5
1f4
100
AcDbEntity
  8
Layer_1
 62
7
100
AcDbLine
 10
-7.129032
 20
9.144735
 30
0.0
 11
-8.063636
 21
9.585340
 31
0.0
  0
LINE
  5
1f5
100
AcDbEntity
  8
Layer_1
 62
7
100
AcDbLine
 10
-8.063636
 20
9.585340
 30
0.0
 11
-8.885788
 21
10.097884
 31
0.0
  0
LINE
  5
1f6
100
AcDbEntity
  8
Layer_1
 62
7
100
AcDbLine
 10
-8.885788
 20
10.097884
 30
0.0
 11
-9.597071
 21
10.683241
 31
0.0
  0
LINE
  5
1f7
100
AcDbEntity
  8
Layer_1
 62
7
100
AcDbLine
 10
-9.597071
 20
10.683241
 30
0.0
 11
-10.199065
 21
11.342258
 31
0.0
  0
LINE
  5
1f8
100
AcDbEntity
  8
Layer_1
 62
7
100
AcDbLine
 10
-10.199065
 20
11.342258
 30
0.0
 11
-10.693353
 21
12.075810
 31
0.0
  0
LINE
  5
1f9
100
AcDbEntity
  8
Layer_1
 62
7
100
AcDbLine
 10
-10.693353
 20
12.075810
 30
0.0
 11
-10.899184
 21
12.471740
 31
0.0
  0
LINE
  5
1fa
100
AcDbEntity
  8
Layer_1
 62
7
100
AcDbLine
 10
-10.899184
 20
12.471740
 30
0.0
 11
-11.012207
 21
12.843342
 31
0.0
  0
LINE
  5
1fb
100
AcDbEntity
  8
Layer_1
 62
7
100
AcDbLine
 10
-11.012207
 20
12.843342
 30
0.0
 11
-11.059521
 21
13.336779
 31
0.0
  0
LINE
  5
1fc
100
AcDbEntity
  8
Layer_1
 62
7
100
AcDbLine
 10
-11.059521
 20
13.336779
 30
0.0
 11
-11.068222
 21
14.098271
 31
0.0
  0
LINE
  5
1fd
100
AcDbEntity
  8
Layer_1
 62
7
100
AcDbLine
 10
-11.068222
 20
14.098271
 30
0.0
 11
-11.065964
 21
15.461289
 31
0.0
  0
LINE
  5
1fe
100
AcDbEntity
  8
Layer_1
 62
7
100
AcDbLine
 10
-11.065964
 20
15.461289
 30
0.0
 11
-12.130495
 21
16.021303
 31
0.0
  0
LINE
  5
1ff
100
AcDbEntity
  8
Layer_1
 62
7
100
AcDbLine
 10
-12.130495
 20
16.021303
 30
0.0
 11
-13.837564
 21
16.916334
 31
0.0
  0
LINE
  5
200
100
AcDbEntity
  8
Layer_1
 62
7
100
AcDbLine
 10
-13.837564
 20
16.916334
 30
0.0
 11
-14.707801
 21
17.329792
 31
0.0
  0
LINE
  5
201
100
AcDbEntity
  8
Layer_1
 62
7
100
AcDbLine
 10
-14.707801
 20
17.329792
 30
0.0
 11
-14.943928
 21
17.399811
 31
0.0
  0
LINE
  5
202
100
AcDbEntity
  8
Layer_1
 62
7
100
AcDbLine
 10
-14.943928
 20
17.399811
 30
0.0
 11
-15.108629
 21
17.402069
 31
0.0
  0
LINE
  5
203
100
AcDbEntity
  8
Layer_1
 62
7
100
AcDbLine
 10
-15.108629
 20
17.402069
 30
0.0
 11
-15.407470
 21
17.273638
 31
0.0
  0
LINE
  5
204
100
AcDbEntity
  8
Layer_1
 62
7
100
AcDbLine
 10
-15.407470
 20
17.273638
 30
0.0
 11
-16.514574
 21
16.688930
 31
0.0
  0
LINE
  5
205
100
AcDbEntity
  8
Layer_1
 62
7
100
AcDbLine
 10
-16.514574
 20
16.688930
 30
0.0
 11
-19.345071
 21
15.187113
 31
0.0
  0
LINE
  5
206
100
AcDbEntity
  8
Layer_1
 62
7
100
AcDbLine
 10
-19.345071
 20
15.187113
 30
0.0
 11
-21.511657
 21
14.052213
 31
0.0
  0
LINE
  5
207
100
AcDbEntity
  8
Layer_1
 62
7
100
AcDbLine
 10
-21.511657
 20
14.052213
 30
0.0
 11
-22.562481
 21
14.745125
 31
0.0
  0
LINE
  5
208
100
AcDbEntity
  8
Layer_1
 62
7
100
AcDbLine
 10
-22.562481
 20
14.745125
 30
0.0
 11
-23.305377
 21
15.276631
 31
0.0
  0
LINE
  5
209
100
AcDbEntity
  8
Layer_1
 62
7
100
AcDbLine
 10
-23.305377
 20
15.276631
 30
0.0
 11
-23.615861
 21
15.581462
 31
0.0
  0
LINE
  5
20a
100
AcDbEntity
  8
Layer_1
 62
7
100
AcDbLine
 10
-23.615861
 20
15.581462
 30
0.0
 11
-23.546333
 21
15.755957
 31
0.0
  0
LINE
  5
20b
100
AcDbEntity
  8
Layer_1
 62
7
100
AcDbLine
 10
-23.546333
 20
15.755957
 30
0.0
 11
-23.347188
 21
16.049042
 31
0.0
  0
LINE
  5
20c
100
AcDbEntity
  8
Layer_1
 62
7
100
AcDbLine
 10
-23.347188
 20
16.049042
 30
0.0
 11
-22.639673
 21
16.901274
 31
0.0
  0
LINE
  5
20d
100
AcDbEntity
  8
Layer_1
 62
7
100
AcDbLine
 10
-22.639673
 20
16.901274
 30
0.0
 11
-21.652568
 21
17.958688
 31
0.0
  0
LINE
  5
20e
100
AcDbEntity
  8
Layer_1
 62
7
100
AcDbLine
 10
-21.652568
 20
17.958688
 30
0.0
 11
-20.545122
 21
19.041825
 31
0.0
  0
LINE
  5
20f
100
AcDbEntity
  8
Layer_1
 62
7
100
AcDbLine
 10
-20.545122
 20
19.041825
 30
0.0
 11
-19.197501
 21
20.213623
 31
0.0
  0
LINE
  5
210
100
AcDbEntity
  8
Layer_1
 62
7
100
AcDbLine
 10
-19.197501
 20
20.213623
 30
0.0
 11
-17.760432
 21
21.308067
 31
0.0
  0
LINE
  5
211
100
AcDbEntity
  8
Layer_1
 62
7
100
AcDbLine
 10
-17.760432
 20
21.308067
 30
0.0
 11
-16.240317
 21
22.321682
 31
0.0
  0
LINE
  5
212
100
AcDbEntity
  8
Layer_1
 62
7
100
AcDbLine
 10
-16.240317
 20
22.321682
 30
0.0
 11
-14.643559
 21
23.250995
 31
0.0
  0
LINE
  5
213
100
AcDbEntity
  8
Layer_1
 62
7
100
AcDbLine
 10
-14.643559
 20
23.250995
 30
0.0
 11
-12.976563
 21
24.092534
 31
0.0
  0
LINE
  5
214
100
AcDbEntity
  8
Layer_1
 62
7
100
AcDbLine
 10
-12.976563
 20
24.092534
 30
0.0
 11
-11.245731
 21
24.842821
 31
0.0
  0
LINE
  5
215
100
AcDbEntity
  8
Layer_1
 62
7
100
AcDbLine
 10
-11.245731
 20
24.842821
 30
0.0
 11
-9.457465
 21
25.498387
 31
0.0
  0
LINE
  5
216
100
AcDbEntity
  8
Layer_1
 62
7
100
AcDbLine
 10
-9.457465
 20
25.498387
 30
0.0
 11
-7.618171
 21
26.055753
 31
0.0
  0
LINE
  5
217
100
AcDbEntity
  8
Layer_1
 62
7
100
AcDbLine
 10
-7.618171
 20
26.055753
 30
0.0
 11
-6.148233
 21
26.445231
 31
0.0
  0
LINE
  5
218
100
AcDbEntity
  8
Layer_1
 62
7
100
AcDbLine
 10
-6.148233
 20
26.445231
 30
0.0
 11
-5.081983
 21
26.690059
 31
0.0
  0
LINE
  5
219
100
AcDbEntity
  8
Layer_1
 62
7
100
AcDbLine
 10
-5.081983
 20
26.690059
 30
0.0
 11
-4.144015
 21
26.845199
 31
0.0
  0
LINE
  5
21a
100
AcDbEntity
  8
Layer_1
 62
7
100
AcDbLine
 10
-4.144015
 20
26.845199
 30
0.0
 11
-3.058927
 21
26.965609
 31
0.0
  0
LINE
  5
21b
100
AcDbEntity
  8
Layer_1
 62
7
100
AcDbLine
 10
-3.058927
 20
26.965609
 30
0.0
 11
-1.975225
 21
27.035555
 31
0.0
  0
LINE
  5
21c
100
AcDbEntity
  8
Layer_1
 62
7
100
AcDbLine
 10
-1.975225
 20
27.035555
 30
0.0
 11
-0.866652
 21
27.038378
 31
0.0
  0
LINE
  5
21d
100
AcDbEntity
  8
Layer_1
 62
7
100
AcDbLine
 10
-0.866652
 20
27.038378
 30
0.0
 11
0.263852
 21
26.974937
 31
0.0
  0
LINE
  5
21e
100
AcDbEntity
  8
Layer_1
 62
7
100
AcDbLine
 10
0.263852
 20
26.974937
 30
0.0
 11
1.413347
 21
26.846311
 31
0.0
  0
LINE
  5
21f
100
AcDbEntity
  8
Layer_1
 62
7
100
AcDbLine
 10
1.413347
 20
26.846311
 30
0.0
 11
2.578895
 21
26.653505
 31
0.0
  0
LINE
  5
220
100
AcDbEntity
  8
Layer_1
 62
7
100
AcDbLine
 10
2.578895
 20
26.653505
 30
0.0
 11
3.757556
 21
26.397521
 31
0.0
  0
LINE
  5
221
100
AcDbEntity
  8
Layer_1
 62
7
100
AcDbLine
 10
3.757556
 20
26.397521
 30
0.0
 11
4.946391
 21
26.079367
 31
0.0
  0
LINE
  5
222
100
AcDbEntity
  8
Layer_1
 62
7
100
AcDbLine
 10
4.946391
 20
26.079367
 30
0.0
 11
6.142459
 21
25.700043
 31
0.0
  0
LINE
  5
223
100
AcDbEntity
  8
Layer_1
 62
7
100
AcDbLine
 10
6.142459
 20
25.700043
 30
0.0
 11
7.342822
 21
25.260558
 31
0.0
  0
LINE
  5
224
100
AcDbEntity
  8
Layer_1
 62
7
100
AcDbLine
 10
7.342822
 20
25.260558
 30
0.0
 11
8.544540
 21
24.761911
 31
0.0
  0
LINE
  5
225
100
AcDbEntity
  8
Layer_1
 62
7
100
AcDbLine
 10
8.544540
 20
24.761911
 30
0.0
 11
9.744674
 21
24.205112
 31
0.0
  0
LINE
  5
226
100
AcDbEntity
  8
Layer_1
 62
7
100
AcDbLine
 10
9.744674
 20
24.205112
 30
0.0
 11
10.940284
 21
23.591160
 31
0.0
  0
LINE
  5
227
100
AcDbEntity
  8
Layer_1
 62
7
100
AcDbLine
 10
10.940284
 20
23.591160
 30
0.0
 11
12.128431
 21
22.921060
 31
0.0
  0
LINE
  5
228
100
AcDbEntity
  8
Layer_1
 62
7
100
AcDbLine
 10
12.128431
 20
22.921060
 30
0.0
 11
13.306176
 21
22.195822
 31
0.0
  0
LINE
  5
229
100
AcDbEntity
  8
Layer_1
 62
7
100
AcDbLine
 10
13.306176
 20
22.195822
 30
0.0
 11
14.470579
 21
21.416443
 31
0.0
  0
LINE
  5
22a
100
AcDbEntity
  8
Layer_1
 62
7
100
AcDbLine
 10
14.470579
 20
21.416443
 30
0.0
 11
15.618700
 21
20.583933
 31
0.0
  0
LINE
  5
22b
100
AcDbEntity
  8
Layer_1
 62
7
100
AcDbLine
 10
15.618700
 20
20.583933
 30
0.0
 11
16.772882
 21
19.636578
 31
0.0
  0
LINE
  5
22c
100
AcDbEntity
  8
Layer_1
 62
7
100
AcDbLine
 10
16.772882
 20
19.636578
 30
0.0
 11
17.958660
 21
18.538344
 31
0.0
  0
LINE
  5
22d
100
AcDbEntity
  8
Layer_1
 62
7
100
AcDbLine
 10
17.958660
 20
18.538344
 30
0.0
 11
18.992378
 21
17.468628
 31
0.0
  0
LINE
  5
22e
100
AcDbEntity
  8
Layer_1
 62
7
100
AcDbLine
 10
18.992378
 20
17.468628
 30
0.0
 11
19.690377
 21
16.606820
 31
0.0
  0
LINE
  5
22f
100
AcDbEntity
  8
Layer_1
 62
7
100
AcDbLine
 10
19.690377
 20
16.606820
 30
0.0
 11
19.957289
 21
16.193224
 31
0.0
  0
LINE
  5
230
100
AcDbEntity
  8
Layer_1
 62
7
100
AcDbLine
 10
19.957289
 20
16.193224
 30
0.0
 11
20.087752
 21
15.928005
 31
0.0
  0
LINE
  5
231
100
AcDbEntity
  8
Layer_1
 62
7
100
AcDbLine
 10
20.087752
 20
15.928005
 30
0.0
 11
20.102825
 21
15.746548
 31
0.0
  0
LINE
  5
232
100
AcDbEntity
  8
Layer_1
 62
7
100
AcDbLine
 10
20.102825
 20
15.746548
 30
0.0
 11
20.023569
 21
15.584216
 31
0.0
  0
LINE
  5
233
100
AcDbEntity
  8
Layer_1
 62
7
100
AcDbLine
 10
20.023569
 20
15.584216
 30
0.0
 11
19.677618
 21
15.247156
 31
0.0
  0
LINE
  5
234
100
AcDbEntity
  8
Layer_1
 62
7
100
AcDbLine
 10
19.677618
 20
15.247156
 30
0.0
 11
19.116868
 21
14.836948
 31
0.0
  0
LINE
  5
235
100
AcDbEntity
  8
Layer_1
 62
7
100
AcDbLine
 10
19.116868
 20
14.836948
 30
0.0
 11
18.522367
 21
14.474671
 31
0.0
  0
LINE
  5
236
100
AcDbEntity
  8
Layer_1
 62
7
100
AcDbLine
 10
18.522367
 20
14.474671
 30
0.0
 11
18.075163
 21
14.281377
 31
0.0
  0
LINE
  5
237
100
AcDbEntity
  8
Layer_1
 62
7
100
AcDbLine
 10
18.075163
 20
14.281377
 30
0.0
 11
17.946359
 21
14.265008
 31
0.0
  0
LINE
  5
238
100
AcDbEntity
  8
Layer_1
 62
7
100
AcDbLine
 10
17.946359
 20
14.265008
 30
0.0
 11
17.746315
 21
14.308386
 31
0.0
  0
LINE
  5
239
100
AcDbEntity
  8
Layer_1
 62
7
100
AcDbLine
 10
17.746315
 20
14.308386
 30
0.0
 11
16.708391
 21
14.789922
 31
0.0
  0
LINE
  5
23a
100
AcDbEntity
  8
Layer_1
 62
7
100
AcDbLine
 10
16.708391
 20
14.789922
 30
0.0
 11
9.112375
 21
18.843271
 31
0.0
  0
LINE
  5
23b
100
AcDbEntity
  8
Layer_1
 62
7
100
AcDbLine
 10
9.112375
 20
18.843271
 30
0.0
 11
5.195300
 21
20.946701
 31
0.0
  0
LINE
  5
23c
100
AcDbEntity
  8
Layer_1
 62
7
100
AcDbLine
 10
5.195300
 20
20.946701
 30
0.0
 11
4.000264
 21
21.595248
 31
0.0
  0
LINE
  5
23d
100
AcDbEntity
  8
Layer_1
 62
7
100
AcDbLine
 10
4.000264
 20
21.595248
 30
0.0
 11
2.539659
 21
22.388716
 31
0.0
  0
LINE
  5
23e
100
AcDbEntity
  8
Layer_1
 62
7
100
AcDbLine
 10
2.539659
 20
22.388716
 30
0.0
 11
0.032631
 21
23.740786
 31
0.0
  0
LINE
  5
23f
100
AcDbEntity
  8
Layer_1
 62
7
100
AcDbLine
 10
0.032631
 20
23.740786
 30
0.0
 11
-1.478533
 21
24.558468
 31
0.0
  0
LINE
  5
240
100
AcDbEntity
  8
Layer_1
 62
7
100
AcDbLine
 10
-1.478533
 20
24.558468
 30
0.0
 11
-4.847112
 21
22.923357
 31
0.0
  0
LINE
  5
241
100
AcDbEntity
  8
Layer_1
 62
7
100
AcDbLine
 10
-4.847112
 20
22.923357
 30
0.0
 11
-7.226172
 21
21.734589
 31
0.0
  0
LINE
  5
242
100
AcDbEntity
  8
Layer_1
 62
7
100
AcDbLine
 10
-7.226172
 20
21.734589
 30
0.0
 11
-8.215691
 21
21.172564
 31
0.0
  0
LINE
  5
243
100
AcDbEntity
  8
Layer_1
 62
7
100
AcDbLine
 10
-8.215691
 20
21.172564
 30
0.0
 11
-7.772544
 21
20.841415
 31
0.0
  0
LINE
  5
244
100
AcDbEntity
  8
Layer_1
 62
7
100
AcDbLine
 10
-7.772544
 20
20.841415
 30
0.0
 11
-6.707106
 21
20.207731
 31
0.0
  0
LINE
  5
245
100
AcDbEntity
  8
Layer_1
 62
7
100
AcDbLine
 10
-6.707106
 20
20.207731
 30
0.0
 11
-5.198510
 21
19.358609
 31
0.0
  0
LINE
  5
246
100
AcDbEntity
  8
Layer_1
 62
7
100
AcDbLine
 10
-5.198510
 20
19.358609
 30
0.0
 11
-4.483003
 21
19.517754
 31
0.0
  0
LINE
  5
247
100
AcDbEntity
  8
Layer_1
 62
7
100
AcDbLine
 10
-4.483003
 20
19.517754
 30
0.0
 11
-3.833880
 21
19.621800
 31
0.0
  0
LINE
  5
248
100
AcDbEntity
  8
Layer_1
 62
7
100
AcDbLine
 10
-3.833880
 20
19.621800
 30
0.0
 11
-3.075725
 21
19.676176
 31
0.0
  0
LINE
  5
249
100
AcDbEntity
  8
Layer_1
 62
7
100
AcDbLine
 10
-3.075725
 20
19.676176
 30
0.0
 11
-2.243423
 21
19.683260
 31
0.0
  0
LINE
  5
24a
100
AcDbEntity
  8
Layer_1
 62
7
100
AcDbLine
 10
-2.243423
 20
19.683260
 30
0.0
 11
-1.371857
 21
19.645383
 31
0.0
  0
LINE
  5
24b
100
AcDbEntity
  8
Layer_1
 62
7
100
AcDbLine
 10
-1.371857
 20
19.645383
 30
0.0
 11
-0.495913
 21
19.564924
 31
0.0
  0
LINE
  5
24c
100
AcDbEntity
  8
Layer_1
 62
7
100
AcDbLine
 10
-0.495913
 20
19.564924
 30
0.0
 11
0.349527
 21
19.444246
 31
0.0
  0
LINE
  5
24d
100
AcDbEntity
  8
Layer_1
 62
7
100
AcDbLine
 10
0.349527
 20
19.444246
 30
0.0
 11
1.129576
 21
19.285705
 31
0.0
  0
LINE
  5
24e
100
AcDbEntity
  8
Layer_1
 62
7
100
AcDbLine
 10
1.129576
 20
19.285705
 30
0.0
 11
1.809353
 21
19.091666
 31
0.0
  0
LINE
  5
24f
100
AcDbEntity
  8
Layer_1
 62
7
100
AcDbLine
 10
1.809353
 20
19.091666
 30
0.0
 11
2.540595
 21
18.806483
 31
0.0
  0
LINE
  5
250
100
AcDbEntity
  8
Layer_1
 62
7
100
AcDbLine
 10
2.540595
 20
18.806483
 30
0.0
 11
3.248539
 21
18.461808
 31
0.0
  0
LINE
  5
251
100
AcDbEntity
  8
Layer_1
 62
7
100
AcDbLine
 10
3.248539
 20
18.461808
 30
0.0
 11
3.920155
 21
18.067541
 31
0.0
  0
LINE
  5
252
100
AcDbEntity
  8
Layer_1
 62
7
100
AcDbLine
 10
3.920155
 20
18.067541
 30
0.0
 11
4.542411
 21
17.633576
 31
0.0
  0
LINE
  5
253
100
AcDbEntity
  8
Layer_1
 62
7
100
AcDbLine
 10
4.542411
 20
17.633576
 30
0.0
 11
5.102277
 21
17.169811
 31
0.0
  0
LINE
  5
254
100
AcDbEntity
  8
Layer_1
 62
7
100
AcDbLine
 10
5.102277
 20
17.169811
 30
0.0
 11
5.586722
 21
16.686139
 31
0.0
  0
LINE
  5
255
100
AcDbEntity
  8
Layer_1
 62
7
100
AcDbLine
 10
5.586722
 20
16.686139
 30
0.0
 11
5.982715
 21
16.192462
 31
0.0
  0
LINE
  5
256
100
AcDbEntity
  8
Layer_1
 62
7
100
AcDbLine
 10
5.982715
 20
16.192462
 30
0.0
 11
6.277224
 21
15.698669
 31
0.0
  0
LINE
  5
257
100
AcDbEntity
  8
Layer_1
 62
7
100
AcDbLine
 10
6.277224
 20
15.698669
 30
0.0
 11
6.469466
 21
15.265554
 31
0.0
  0
LINE
  5
258
100
AcDbEntity
  8
Layer_1
 62
7
100
AcDbLine
 10
6.469466
 20
15.265554
 30
0.0
 11
6.584791
 21
14.880095
 31
0.0
  0
LINE
  5
259
100
AcDbEntity
  8
Layer_1
 62
7
100
AcDbLine
 10
6.584791
 20
14.880095
 30
0.0
 11
6.640977
 21
14.458669
 31
0.0
  0
LINE
  5
25a
100
AcDbEntity
  8
Layer_1
 62
7
100
AcDbLine
 10
6.640977
 20
14.458669
 30
0.0
 11
6.655799
 21
13.917649
 31
0.0
  0
LINE
  5
25b
100
AcDbEntity
  8
Layer_1
 62
7
100
AcDbLine
 10
6.655799
 20
13.917649
 30
0.0
 11
6.590075
 21
13.114050
 31
0.0
  0
LINE
  5
25c
100
AcDbEntity
  8
Layer_1
 62
7
100
AcDbLine
 10
6.590075
 20
13.114050
 30
0.0
 11
6.384557
 21
12.382022
 31
0.0
  0
LINE
  5
25d
100
AcDbEntity
  8
Layer_1
 62
7
100
AcDbLine
 10
6.384557
 20
12.382022
 30
0.0
 11
6.026731
 21
11.689956
 31
0.0
  0
LINE
  5
25e
100
AcDbEntity
  8
Layer_1
 62
7
100
AcDbLine
 10
6.026731
 20
11.689956
 30
0.0
 11
5.504081
 21
11.006358
 31
0.0
  0
LINE
  5
25f
100
AcDbEntity
  8
Layer_1
 62
7
100
AcDbLine
 10
5.504081
 20
11.006358
 30
0.0
 11
5.114342
 21
10.622987
 31
0.0
  0
LINE
  5
260
100
AcDbEntity
  8
Layer_1
 62
7
100
AcDbLine
 10
5.114342
 20
10.622987
 30
0.0
 11
4.630820
 21
10.242777
 31
0.0
  0
LINE
  5
261
100
AcDbEntity
  8
Layer_1
 62
7
100
AcDbLine
 10
4.630820
 20
10.242777
 30
0.0
 11
4.069605
 21
9.874082
 31
0.0
  0
LINE
  5
262
100
AcDbEntity
  8
Layer_1
 62
7
100
AcDbLine
 10
4.069605
 20
9.874082
 30
0.0
 11
3.446786
 21
9.525227
 31
0.0
  0
LINE
  5
263
100
AcDbEntity
  8
Layer_1
 62
7
100
AcDbLine
 10
3.446786
 20
9.525227
 30
0.0
 11
2.778451
 21
9.204566
 31
0.0
  0
LINE
  5
264
100
AcDbEntity
  8
Layer_1
 62
7
100
AcDbLine
 10
2.778451
 20
9.204566
 30
0.0
 11
2.080691
 21
8.920425
 31
0.0
  0
LINE
  5
265
100
AcDbEntity
  8
Layer_1
 62
7
100
AcDbLine
 10
2.080691
 20
8.920425
 30
0.0
 11
1.369593
 21
8.681157
 31
0.0
  0
LINE
  5
266
100
AcDbEntity
  8
Layer_1
 62
7
100
AcDbLine
 10
1.369593
 20
8.681157
 30
0.0
 11
0.661247
 21
8.495144
 31
0.0
  0
LINE
  5
267
100
AcDbEntity
  8
Layer_1
 62
7
100
AcDbLine
 10
0.661247
 20
8.495144
 30
0.0
 11
-0.277783
 21
8.359819
 31
0.0
  0
LINE
  5
268
100
AcDbEntity
  8
Layer_1
 62
7
100
AcDbLine
 10
-0.277783
 20
8.359819
 30
0.0
 11
-1.548517
 21
8.259150
 31
0.0
  0
LINE
  5
269
100
AcDbEntity
  8
Layer_1
 62
7
100
AcDbLine
 10
-1.548517
 20
8.259150
 30
0.0
 11
-2.788359
 21
8.214164
 31
0.0
  0
LINE
  5
26a
100
AcDbEntity
  8
Layer_1
 62
7
100
AcDbLine
 10
-2.788359
 20
8.214164
 30
0.0
 11
-3.634712
 21
8.245942
 31
0.0
  0
LINE
  5
26b
100
AcDbEntity
  8
Layer_1
 62
7
100
AcDbLine
 10
-3.634712
 20
8.245942
 30
0.0
 11
-3.634695
 21
8.245942
 31
0.0
  0
ENDSEC
  0
SECTION
  2
OBJECTS
  0
DICTIONARY
  5
C
330
0
100
AcDbDictionary
  3
ACAD_GROUP
350
D
  3
ACAD_MLINESTYLE
350
17
  0
DICTIONARY
  5
D
330
C
100
AcDbDictionary
  0
DICTIONARY
  5
1A
330
C
100
AcDbDictionary
  0
DICTIONARY
  5
17
330
C
100
AcDbDictionary
  3
STANDARD
350
18
  0
DICTIONARY
  5
19
330
C
100
AcDbDictionary
  0
ENDSEC
  0
EOF
